<mxfile host="65bd71144e">
    <diagram id="fvuY6CObEv7AP_98CnZD" name="Page-1">
        <mxGraphModel dx="446" dy="1806" grid="1" gridSize="10" guides="1" tooltips="1" connect="1" arrows="1" fold="1" page="1" pageScale="1" pageWidth="850" pageHeight="1100" math="0" shadow="0">
            <root>
                <mxCell id="0"/>
                <mxCell id="1" parent="0"/>
                <mxCell id="16" value="" style="edgeStyle=none;html=1;" edge="1" parent="1" source="2" target="15">
                    <mxGeometry relative="1" as="geometry"/>
                </mxCell>
                <mxCell id="2" value="start" style="strokeWidth=2;html=1;shape=mxgraph.flowchart.start_1;whiteSpace=wrap;" vertex="1" parent="1">
                    <mxGeometry x="180" width="100" height="60" as="geometry"/>
                </mxCell>
                <mxCell id="9" value="" style="edgeStyle=none;html=1;" edge="1" parent="1" source="6" target="8">
                    <mxGeometry relative="1" as="geometry"/>
                </mxCell>
                <mxCell id="6" value="move()" style="shape=process;whiteSpace=wrap;html=1;backgroundOutline=1;strokeWidth=2;" vertex="1" parent="1">
                    <mxGeometry x="170" y="180" width="120" height="60" as="geometry"/>
                </mxCell>
                <mxCell id="11" value="" style="edgeStyle=none;html=1;" edge="1" parent="1" source="8" target="10">
                    <mxGeometry relative="1" as="geometry"/>
                </mxCell>
                <mxCell id="8" value="turn()" style="shape=process;whiteSpace=wrap;html=1;backgroundOutline=1;strokeWidth=2;" vertex="1" parent="1">
                    <mxGeometry x="170" y="260" width="120" height="60" as="geometry"/>
                </mxCell>
                <mxCell id="19" value="" style="edgeStyle=none;html=1;" edge="1" parent="1" source="10" target="18">
                    <mxGeometry relative="1" as="geometry"/>
                </mxCell>
                <mxCell id="10" value="move()" style="shape=process;whiteSpace=wrap;html=1;backgroundOutline=1;strokeWidth=2;" vertex="1" parent="1">
                    <mxGeometry x="170" y="350" width="120" height="60" as="geometry"/>
                </mxCell>
                <mxCell id="17" style="edgeStyle=none;html=1;exitX=0.5;exitY=1;exitDx=0;exitDy=0;entryX=0.5;entryY=0;entryDx=0;entryDy=0;" edge="1" parent="1" source="15" target="6">
                    <mxGeometry relative="1" as="geometry"/>
                </mxCell>
                <mxCell id="15" value="lower()" style="shape=process;whiteSpace=wrap;html=1;backgroundOutline=1;strokeWidth=2;" vertex="1" parent="1">
                    <mxGeometry x="170" y="90" width="120" height="60" as="geometry"/>
                </mxCell>
                <mxCell id="21" value="" style="edgeStyle=none;html=1;" edge="1" parent="1" source="18" target="20">
                    <mxGeometry relative="1" as="geometry"/>
                </mxCell>
                <mxCell id="18" value="turn()" style="shape=process;whiteSpace=wrap;html=1;backgroundOutline=1;strokeWidth=2;" vertex="1" parent="1">
                    <mxGeometry x="170" y="440" width="120" height="60" as="geometry"/>
                </mxCell>
                <mxCell id="23" value="" style="edgeStyle=none;html=1;" edge="1" parent="1" source="20" target="22">
                    <mxGeometry relative="1" as="geometry"/>
                </mxCell>
                <mxCell id="20" value="move()" style="shape=process;whiteSpace=wrap;html=1;backgroundOutline=1;strokeWidth=2;" vertex="1" parent="1">
                    <mxGeometry x="170" y="530" width="120" height="60" as="geometry"/>
                </mxCell>
                <mxCell id="25" value="" style="edgeStyle=none;html=1;" edge="1" parent="1" source="22" target="24">
                    <mxGeometry relative="1" as="geometry"/>
                </mxCell>
                <mxCell id="22" value="turn()" style="shape=process;whiteSpace=wrap;html=1;backgroundOutline=1;strokeWidth=2;" vertex="1" parent="1">
                    <mxGeometry x="170" y="610" width="120" height="60" as="geometry"/>
                </mxCell>
                <mxCell id="27" value="" style="edgeStyle=none;html=1;" edge="1" parent="1" source="24" target="26">
                    <mxGeometry relative="1" as="geometry"/>
                </mxCell>
                <mxCell id="24" value="move()" style="shape=process;whiteSpace=wrap;html=1;backgroundOutline=1;strokeWidth=2;" vertex="1" parent="1">
                    <mxGeometry x="170" y="700" width="120" height="60" as="geometry"/>
                </mxCell>
                <mxCell id="30" value="" style="edgeStyle=none;html=1;" edge="1" parent="1" source="26" target="29">
                    <mxGeometry relative="1" as="geometry"/>
                </mxCell>
                <mxCell id="26" value="raise()" style="shape=process;whiteSpace=wrap;html=1;backgroundOutline=1;strokeWidth=2;" vertex="1" parent="1">
                    <mxGeometry x="170" y="780" width="120" height="60" as="geometry"/>
                </mxCell>
                <mxCell id="28" value="a)" style="text;html=1;align=center;verticalAlign=middle;resizable=0;points=[];autosize=1;strokeColor=none;fillColor=none;" vertex="1" parent="1">
                    <mxGeometry x="105" y="20" width="30" height="20" as="geometry"/>
                </mxCell>
                <mxCell id="29" value="stop" style="ellipse;whiteSpace=wrap;html=1;strokeWidth=2;" vertex="1" parent="1">
                    <mxGeometry x="170" y="920" width="120" height="60" as="geometry"/>
                </mxCell>
                <mxCell id="31" value="b)" style="text;html=1;align=center;verticalAlign=middle;resizable=0;points=[];autosize=1;strokeColor=none;fillColor=none;" vertex="1" parent="1">
                    <mxGeometry x="325" y="10" width="30" height="20" as="geometry"/>
                </mxCell>
                <mxCell id="49" value="" style="edgeStyle=none;html=1;" edge="1" parent="1" source="32" target="48">
                    <mxGeometry relative="1" as="geometry"/>
                </mxCell>
                <mxCell id="32" value="start" style="strokeWidth=2;html=1;shape=mxgraph.flowchart.start_1;whiteSpace=wrap;" vertex="1" parent="1">
                    <mxGeometry x="410" y="10" width="100" height="60" as="geometry"/>
                </mxCell>
                <mxCell id="33" value="" style="edgeStyle=none;html=1;" edge="1" source="34" target="36" parent="1">
                    <mxGeometry relative="1" as="geometry"/>
                </mxCell>
                <mxCell id="34" value="move()" style="shape=process;whiteSpace=wrap;html=1;backgroundOutline=1;strokeWidth=2;" vertex="1" parent="1">
                    <mxGeometry x="400" y="180" width="120" height="60" as="geometry"/>
                </mxCell>
                <mxCell id="35" value="" style="edgeStyle=none;html=1;" edge="1" source="36" target="38" parent="1">
                    <mxGeometry relative="1" as="geometry"/>
                </mxCell>
                <mxCell id="36" value="move()" style="shape=process;whiteSpace=wrap;html=1;backgroundOutline=1;strokeWidth=2;" vertex="1" parent="1">
                    <mxGeometry x="400" y="260" width="120" height="60" as="geometry"/>
                </mxCell>
                <mxCell id="37" value="" style="edgeStyle=none;html=1;" edge="1" source="38" target="41" parent="1">
                    <mxGeometry relative="1" as="geometry"/>
                </mxCell>
                <mxCell id="38" value="turn()" style="shape=process;whiteSpace=wrap;html=1;backgroundOutline=1;strokeWidth=2;" vertex="1" parent="1">
                    <mxGeometry x="400" y="350" width="120" height="60" as="geometry"/>
                </mxCell>
                <mxCell id="39" style="edgeStyle=none;html=1;exitX=0.5;exitY=1;exitDx=0;exitDy=0;entryX=0.5;entryY=0;entryDx=0;entryDy=0;" edge="1" target="34" parent="1">
                    <mxGeometry relative="1" as="geometry">
                        <mxPoint x="460" y="150" as="sourcePoint"/>
                    </mxGeometry>
                </mxCell>
                <mxCell id="40" value="" style="edgeStyle=none;html=1;" edge="1" source="41" target="43" parent="1">
                    <mxGeometry relative="1" as="geometry"/>
                </mxCell>
                <mxCell id="41" value="move()" style="shape=process;whiteSpace=wrap;html=1;backgroundOutline=1;strokeWidth=2;" vertex="1" parent="1">
                    <mxGeometry x="400" y="440" width="120" height="60" as="geometry"/>
                </mxCell>
                <mxCell id="42" value="" style="edgeStyle=none;html=1;" edge="1" source="43" target="45" parent="1">
                    <mxGeometry relative="1" as="geometry"/>
                </mxCell>
                <mxCell id="43" value="turn()" style="shape=process;whiteSpace=wrap;html=1;backgroundOutline=1;strokeWidth=2;" vertex="1" parent="1">
                    <mxGeometry x="400" y="530" width="120" height="60" as="geometry"/>
                </mxCell>
                <mxCell id="44" value="" style="edgeStyle=none;html=1;" edge="1" source="45" target="47" parent="1">
                    <mxGeometry relative="1" as="geometry"/>
                </mxCell>
                <mxCell id="45" value="move()" style="shape=process;whiteSpace=wrap;html=1;backgroundOutline=1;strokeWidth=2;" vertex="1" parent="1">
                    <mxGeometry x="400" y="610" width="120" height="60" as="geometry"/>
                </mxCell>
                <mxCell id="46" value="" style="edgeStyle=none;html=1;" edge="1" source="47" parent="1">
                    <mxGeometry relative="1" as="geometry">
                        <mxPoint x="460" y="780" as="targetPoint"/>
                    </mxGeometry>
                </mxCell>
                <mxCell id="51" value="" style="edgeStyle=none;html=1;" edge="1" parent="1" source="47" target="50">
                    <mxGeometry relative="1" as="geometry"/>
                </mxCell>
                <mxCell id="47" value="move()" style="shape=process;whiteSpace=wrap;html=1;backgroundOutline=1;strokeWidth=2;" vertex="1" parent="1">
                    <mxGeometry x="400" y="700" width="120" height="60" as="geometry"/>
                </mxCell>
                <mxCell id="48" value="lower()" style="shape=process;whiteSpace=wrap;html=1;backgroundOutline=1;strokeWidth=2;" vertex="1" parent="1">
                    <mxGeometry x="400" y="90" width="120" height="60" as="geometry"/>
                </mxCell>
                <mxCell id="53" value="" style="edgeStyle=none;html=1;" edge="1" parent="1" source="50" target="52">
                    <mxGeometry relative="1" as="geometry"/>
                </mxCell>
                <mxCell id="50" value="turn()" style="shape=process;whiteSpace=wrap;html=1;backgroundOutline=1;strokeWidth=2;" vertex="1" parent="1">
                    <mxGeometry x="400" y="780" width="120" height="60" as="geometry"/>
                </mxCell>
                <mxCell id="55" value="" style="edgeStyle=none;html=1;" edge="1" parent="1" source="52" target="54">
                    <mxGeometry relative="1" as="geometry"/>
                </mxCell>
                <mxCell id="52" value="move()" style="shape=process;whiteSpace=wrap;html=1;backgroundOutline=1;strokeWidth=2;" vertex="1" parent="1">
                    <mxGeometry x="400" y="880" width="120" height="60" as="geometry"/>
                </mxCell>
                <mxCell id="57" value="" style="edgeStyle=none;html=1;" edge="1" parent="1" source="54" target="56">
                    <mxGeometry relative="1" as="geometry"/>
                </mxCell>
                <mxCell id="54" value="raise()" style="shape=process;whiteSpace=wrap;html=1;backgroundOutline=1;strokeWidth=2;" vertex="1" parent="1">
                    <mxGeometry x="400" y="970" width="120" height="60" as="geometry"/>
                </mxCell>
                <mxCell id="56" value="stop" style="ellipse;whiteSpace=wrap;html=1;strokeWidth=2;" vertex="1" parent="1">
                    <mxGeometry x="400" y="1110" width="120" height="60" as="geometry"/>
                </mxCell>
                <mxCell id="58" value="c)" style="text;html=1;align=center;verticalAlign=middle;resizable=0;points=[];autosize=1;strokeColor=none;fillColor=none;" vertex="1" parent="1">
                    <mxGeometry x="555" y="20" width="30" height="20" as="geometry"/>
                </mxCell>
                <mxCell id="61" value="" style="edgeStyle=none;html=1;" edge="1" parent="1" source="59" target="60">
                    <mxGeometry relative="1" as="geometry"/>
                </mxCell>
                <mxCell id="59" value="start" style="strokeWidth=2;html=1;shape=mxgraph.flowchart.start_1;whiteSpace=wrap;" vertex="1" parent="1">
                    <mxGeometry x="610" y="20" width="100" height="60" as="geometry"/>
                </mxCell>
                <mxCell id="63" value="" style="edgeStyle=none;html=1;" edge="1" parent="1" source="60" target="62">
                    <mxGeometry relative="1" as="geometry"/>
                </mxCell>
                <mxCell id="60" value="lower()" style="shape=process;whiteSpace=wrap;html=1;backgroundOutline=1;strokeWidth=2;" vertex="1" parent="1">
                    <mxGeometry x="600" y="110" width="120" height="60" as="geometry"/>
                </mxCell>
                <mxCell id="65" value="" style="edgeStyle=none;html=1;" edge="1" parent="1" source="62" target="64">
                    <mxGeometry relative="1" as="geometry"/>
                </mxCell>
                <mxCell id="62" value="move()" style="shape=process;whiteSpace=wrap;html=1;backgroundOutline=1;strokeWidth=2;" vertex="1" parent="1">
                    <mxGeometry x="600" y="200" width="120" height="60" as="geometry"/>
                </mxCell>
                <mxCell id="67" value="" style="edgeStyle=none;html=1;" edge="1" parent="1" source="64" target="66">
                    <mxGeometry relative="1" as="geometry"/>
                </mxCell>
                <mxCell id="64" value="drawCircle()" style="shape=process;whiteSpace=wrap;html=1;backgroundOutline=1;strokeWidth=2;" vertex="1" parent="1">
                    <mxGeometry x="600" y="290" width="120" height="60" as="geometry"/>
                </mxCell>
                <mxCell id="69" value="" style="edgeStyle=none;html=1;" edge="1" parent="1" source="66" target="68">
                    <mxGeometry relative="1" as="geometry"/>
                </mxCell>
                <mxCell id="66" value="raise()" style="shape=process;whiteSpace=wrap;html=1;backgroundOutline=1;strokeWidth=2;" vertex="1" parent="1">
                    <mxGeometry x="600" y="380" width="120" height="60" as="geometry"/>
                </mxCell>
                <mxCell id="71" value="" style="edgeStyle=none;html=1;" edge="1" parent="1" source="68" target="70">
                    <mxGeometry relative="1" as="geometry"/>
                </mxCell>
                <mxCell id="68" value="lower()" style="shape=process;whiteSpace=wrap;html=1;backgroundOutline=1;strokeWidth=2;" vertex="1" parent="1">
                    <mxGeometry x="600" y="480" width="120" height="60" as="geometry"/>
                </mxCell>
                <mxCell id="76" style="edgeStyle=none;html=1;exitX=0.5;exitY=1;exitDx=0;exitDy=0;entryX=0.5;entryY=0;entryDx=0;entryDy=0;" edge="1" parent="1" source="70" target="74">
                    <mxGeometry relative="1" as="geometry"/>
                </mxCell>
                <mxCell id="70" value="move()" style="shape=process;whiteSpace=wrap;html=1;backgroundOutline=1;strokeWidth=2;" vertex="1" parent="1">
                    <mxGeometry x="600" y="560" width="120" height="60" as="geometry"/>
                </mxCell>
                <mxCell id="73" value="" style="edgeStyle=none;html=1;" edge="1" parent="1" source="74" target="75">
                    <mxGeometry relative="1" as="geometry"/>
                </mxCell>
                <mxCell id="74" value="drawCircle()" style="shape=process;whiteSpace=wrap;html=1;backgroundOutline=1;strokeWidth=2;" vertex="1" parent="1">
                    <mxGeometry x="600" y="640" width="120" height="60" as="geometry"/>
                </mxCell>
                <mxCell id="84" style="edgeStyle=none;html=1;exitX=0.5;exitY=1;exitDx=0;exitDy=0;entryX=0.5;entryY=0;entryDx=0;entryDy=0;" edge="1" parent="1" source="75" target="78">
                    <mxGeometry relative="1" as="geometry"/>
                </mxCell>
                <mxCell id="75" value="raise()" style="shape=process;whiteSpace=wrap;html=1;backgroundOutline=1;strokeWidth=2;" vertex="1" parent="1">
                    <mxGeometry x="600" y="730" width="120" height="60" as="geometry"/>
                </mxCell>
                <mxCell id="77" value="" style="edgeStyle=none;html=1;" edge="1" parent="1" source="78" target="80">
                    <mxGeometry relative="1" as="geometry"/>
                </mxCell>
                <mxCell id="78" value="lower()" style="shape=process;whiteSpace=wrap;html=1;backgroundOutline=1;strokeWidth=2;" vertex="1" parent="1">
                    <mxGeometry x="600" y="820" width="120" height="60" as="geometry"/>
                </mxCell>
                <mxCell id="79" style="edgeStyle=none;html=1;exitX=0.5;exitY=1;exitDx=0;exitDy=0;entryX=0.5;entryY=0;entryDx=0;entryDy=0;" edge="1" parent="1" source="80" target="82">
                    <mxGeometry relative="1" as="geometry"/>
                </mxCell>
                <mxCell id="80" value="move()" style="shape=process;whiteSpace=wrap;html=1;backgroundOutline=1;strokeWidth=2;" vertex="1" parent="1">
                    <mxGeometry x="600" y="900" width="120" height="60" as="geometry"/>
                </mxCell>
                <mxCell id="81" value="" style="edgeStyle=none;html=1;" edge="1" parent="1" source="82" target="83">
                    <mxGeometry relative="1" as="geometry"/>
                </mxCell>
                <mxCell id="82" value="drawCircle()" style="shape=process;whiteSpace=wrap;html=1;backgroundOutline=1;strokeWidth=2;" vertex="1" parent="1">
                    <mxGeometry x="600" y="980" width="120" height="60" as="geometry"/>
                </mxCell>
                <mxCell id="86" value="" style="edgeStyle=none;html=1;" edge="1" parent="1" source="83" target="85">
                    <mxGeometry relative="1" as="geometry"/>
                </mxCell>
                <mxCell id="83" value="raise()" style="shape=process;whiteSpace=wrap;html=1;backgroundOutline=1;strokeWidth=2;" vertex="1" parent="1">
                    <mxGeometry x="600" y="1070" width="120" height="60" as="geometry"/>
                </mxCell>
                <mxCell id="85" value="stop" style="ellipse;whiteSpace=wrap;html=1;strokeWidth=2;" vertex="1" parent="1">
                    <mxGeometry x="600" y="1210" width="120" height="60" as="geometry"/>
                </mxCell>
                <mxCell id="87" value="d)" style="text;html=1;align=center;verticalAlign=middle;resizable=0;points=[];autosize=1;strokeColor=none;fillColor=none;" vertex="1" parent="1">
                    <mxGeometry x="755" y="30" width="30" height="20" as="geometry"/>
                </mxCell>
                <mxCell id="90" value="" style="edgeStyle=none;html=1;" edge="1" parent="1" source="88" target="89">
                    <mxGeometry relative="1" as="geometry"/>
                </mxCell>
                <mxCell id="88" value="start" style="strokeWidth=2;html=1;shape=mxgraph.flowchart.start_1;whiteSpace=wrap;" vertex="1" parent="1">
                    <mxGeometry x="810" y="30" width="100" height="60" as="geometry"/>
                </mxCell>
                <mxCell id="92" value="" style="edgeStyle=none;html=1;" edge="1" parent="1" source="89" target="91">
                    <mxGeometry relative="1" as="geometry"/>
                </mxCell>
                <mxCell id="89" value="lower()" style="shape=process;whiteSpace=wrap;html=1;backgroundOutline=1;strokeWidth=2;" vertex="1" parent="1">
                    <mxGeometry x="800" y="120" width="120" height="60" as="geometry"/>
                </mxCell>
                <mxCell id="94" value="" style="edgeStyle=none;html=1;" edge="1" parent="1" source="91" target="93">
                    <mxGeometry relative="1" as="geometry"/>
                </mxCell>
                <mxCell id="91" value="move()&lt;br&gt;turn()&lt;br&gt;turn()&lt;br&gt;move()&lt;br&gt;turn()&lt;br&gt;turn()&lt;br&gt;turn()&lt;br&gt;move()&lt;br&gt;turn()&lt;br&gt;turn()&lt;br&gt;move()" style="shape=process;whiteSpace=wrap;html=1;backgroundOutline=1;strokeWidth=2;" vertex="1" parent="1">
                    <mxGeometry x="800" y="210" width="120" height="180" as="geometry"/>
                </mxCell>
                <mxCell id="103" style="edgeStyle=none;html=1;exitX=0.5;exitY=1;exitDx=0;exitDy=0;entryX=0.5;entryY=0;entryDx=0;entryDy=0;" edge="1" parent="1" source="93" target="102">
                    <mxGeometry relative="1" as="geometry"/>
                </mxCell>
                <mxCell id="93" value="raise()" style="shape=process;whiteSpace=wrap;html=1;backgroundOutline=1;strokeWidth=2;" vertex="1" parent="1">
                    <mxGeometry x="800" y="420" width="120" height="60" as="geometry"/>
                </mxCell>
                <mxCell id="110" value="" style="edgeStyle=none;html=1;" edge="1" parent="1" source="102" target="109">
                    <mxGeometry relative="1" as="geometry"/>
                </mxCell>
                <mxCell id="102" value="move()&lt;br&gt;turn()&lt;br&gt;move()&lt;br&gt;move()&lt;br&gt;turn()&lt;br&gt;turn()&lt;br&gt;move()&lt;br&gt;turn()&lt;br&gt;turn()&lt;br&gt;turn()&lt;br&gt;move()&lt;br&gt;turn()&lt;br&gt;turn()&lt;br&gt;turn()&lt;br&gt;move()&lt;br&gt;turn()&lt;br&gt;turn()&lt;br&gt;move()&lt;br&gt;move()" style="shape=process;whiteSpace=wrap;html=1;backgroundOutline=1;strokeWidth=2;" vertex="1" parent="1">
                    <mxGeometry x="800" y="520" width="120" height="280" as="geometry"/>
                </mxCell>
                <mxCell id="104" value="'C'" style="text;html=1;align=center;verticalAlign=middle;resizable=0;points=[];autosize=1;strokeColor=none;fillColor=none;" vertex="1" parent="1">
                    <mxGeometry x="765" y="300" width="30" height="20" as="geometry"/>
                </mxCell>
                <mxCell id="105" value="1 inch box" style="text;html=1;align=center;verticalAlign=middle;resizable=0;points=[];autosize=1;strokeColor=none;fillColor=none;" vertex="1" parent="1">
                    <mxGeometry x="85" y="40" width="70" height="20" as="geometry"/>
                </mxCell>
                <mxCell id="106" value="rectangle" style="text;html=1;align=center;verticalAlign=middle;resizable=0;points=[];autosize=1;strokeColor=none;fillColor=none;" vertex="1" parent="1">
                    <mxGeometry x="330" y="40" width="60" height="20" as="geometry"/>
                </mxCell>
                <mxCell id="107" value="beads&lt;br&gt;" style="text;html=1;align=center;verticalAlign=middle;resizable=0;points=[];autosize=1;strokeColor=none;fillColor=none;" vertex="1" parent="1">
                    <mxGeometry x="545" y="60" width="50" height="20" as="geometry"/>
                </mxCell>
                <mxCell id="108" value="word" style="text;html=1;align=center;verticalAlign=middle;resizable=0;points=[];autosize=1;strokeColor=none;fillColor=none;" vertex="1" parent="1">
                    <mxGeometry x="750" y="70" width="40" height="20" as="geometry"/>
                </mxCell>
                <mxCell id="113" value="" style="edgeStyle=none;html=1;" edge="1" parent="1" source="109" target="112">
                    <mxGeometry relative="1" as="geometry"/>
                </mxCell>
                <mxCell id="109" value="raise()" style="shape=process;whiteSpace=wrap;html=1;backgroundOutline=1;strokeWidth=2;" vertex="1" parent="1">
                    <mxGeometry x="800" y="850" width="120" height="60" as="geometry"/>
                </mxCell>
                <mxCell id="111" value="'A'" style="text;html=1;align=center;verticalAlign=middle;resizable=0;points=[];autosize=1;strokeColor=none;fillColor=none;" vertex="1" parent="1">
                    <mxGeometry x="765" y="660" width="30" height="20" as="geometry"/>
                </mxCell>
                <mxCell id="114" style="edgeStyle=none;html=1;exitX=0.5;exitY=1;exitDx=0;exitDy=0;" edge="1" parent="1" source="112">
                    <mxGeometry relative="1" as="geometry">
                        <mxPoint x="860" y="1140" as="targetPoint"/>
                    </mxGeometry>
                </mxCell>
                <mxCell id="112" value="move()&lt;br&gt;move()&lt;br&gt;turn()&lt;br&gt;turn()&lt;br&gt;move()&lt;br&gt;turn()&lt;br&gt;turn()&lt;br&gt;turn()&lt;br&gt;move()&lt;br&gt;move()" style="shape=process;whiteSpace=wrap;html=1;backgroundOutline=1;strokeWidth=2;" vertex="1" parent="1">
                    <mxGeometry x="800" y="950" width="120" height="150" as="geometry"/>
                </mxCell>
                <mxCell id="117" value="" style="edgeStyle=none;html=1;" edge="1" parent="1" source="115" target="116">
                    <mxGeometry relative="1" as="geometry"/>
                </mxCell>
                <mxCell id="115" value="raise()" style="shape=process;whiteSpace=wrap;html=1;backgroundOutline=1;strokeWidth=2;" vertex="1" parent="1">
                    <mxGeometry x="800" y="1140" width="120" height="60" as="geometry"/>
                </mxCell>
                <mxCell id="116" value="stop" style="ellipse;whiteSpace=wrap;html=1;strokeWidth=2;" vertex="1" parent="1">
                    <mxGeometry x="800" y="1280" width="120" height="60" as="geometry"/>
                </mxCell>
                <mxCell id="118" value="'T'" style="text;html=1;align=center;verticalAlign=middle;resizable=0;points=[];autosize=1;strokeColor=none;fillColor=none;" vertex="1" parent="1">
                    <mxGeometry x="755" y="1000" width="30" height="20" as="geometry"/>
                </mxCell>
                <mxCell id="119" value="e)" style="text;html=1;align=center;verticalAlign=middle;resizable=0;points=[];autosize=1;strokeColor=none;fillColor=none;" vertex="1" parent="1">
                    <mxGeometry x="955" y="30" width="30" height="20" as="geometry"/>
                </mxCell>
                <mxCell id="122" value="" style="edgeStyle=none;html=1;" edge="1" parent="1" source="120" target="121">
                    <mxGeometry relative="1" as="geometry"/>
                </mxCell>
                <mxCell id="120" value="start" style="strokeWidth=2;html=1;shape=mxgraph.flowchart.start_1;whiteSpace=wrap;" vertex="1" parent="1">
                    <mxGeometry x="1030" y="30" width="100" height="60" as="geometry"/>
                </mxCell>
                <mxCell id="124" value="" style="edgeStyle=none;html=1;" edge="1" parent="1" source="121" target="123">
                    <mxGeometry relative="1" as="geometry"/>
                </mxCell>
                <mxCell id="121" value="lower()" style="shape=process;whiteSpace=wrap;html=1;backgroundOutline=1;strokeWidth=2;" vertex="1" parent="1">
                    <mxGeometry x="1020" y="130" width="120" height="60" as="geometry"/>
                </mxCell>
                <mxCell id="126" value="" style="edgeStyle=none;html=1;" edge="1" parent="1" source="123" target="125">
                    <mxGeometry relative="1" as="geometry"/>
                </mxCell>
                <mxCell id="123" value="turn()&lt;br&gt;move()" style="shape=process;whiteSpace=wrap;html=1;backgroundOutline=1;strokeWidth=2;" vertex="1" parent="1">
                    <mxGeometry x="1020" y="230" width="120" height="60" as="geometry"/>
                </mxCell>
                <mxCell id="129" value="" style="edgeStyle=none;html=1;" edge="1" parent="1" source="125" target="128">
                    <mxGeometry relative="1" as="geometry"/>
                </mxCell>
                <mxCell id="125" value="raise()" style="shape=process;whiteSpace=wrap;html=1;backgroundOutline=1;strokeWidth=2;" vertex="1" parent="1">
                    <mxGeometry x="1020" y="330" width="120" height="60" as="geometry"/>
                </mxCell>
                <mxCell id="127" value="'1'" style="text;html=1;align=center;verticalAlign=middle;resizable=0;points=[];autosize=1;strokeColor=none;fillColor=none;" vertex="1" parent="1">
                    <mxGeometry x="985" y="250" width="30" height="20" as="geometry"/>
                </mxCell>
                <mxCell id="131" value="" style="edgeStyle=none;html=1;" edge="1" parent="1" source="128" target="130">
                    <mxGeometry relative="1" as="geometry"/>
                </mxCell>
                <mxCell id="128" value="lower()" style="shape=process;whiteSpace=wrap;html=1;backgroundOutline=1;strokeWidth=2;" vertex="1" parent="1">
                    <mxGeometry x="1020" y="430" width="120" height="60" as="geometry"/>
                </mxCell>
                <mxCell id="138" style="edgeStyle=none;html=1;exitX=0.5;exitY=1;exitDx=0;exitDy=0;entryX=0.5;entryY=0;entryDx=0;entryDy=0;" edge="1" parent="1" source="130" target="134">
                    <mxGeometry relative="1" as="geometry"/>
                </mxCell>
                <mxCell id="130" value="drawCircle()" style="shape=process;whiteSpace=wrap;html=1;backgroundOutline=1;strokeWidth=2;" vertex="1" parent="1">
                    <mxGeometry x="1020" y="520" width="120" height="60" as="geometry"/>
                </mxCell>
                <mxCell id="132" value="'0'" style="text;html=1;align=center;verticalAlign=middle;resizable=0;points=[];autosize=1;strokeColor=none;fillColor=none;" vertex="1" parent="1">
                    <mxGeometry x="985" y="530" width="30" height="20" as="geometry"/>
                </mxCell>
                <mxCell id="133" value="" style="edgeStyle=none;html=1;" edge="1" parent="1" source="134" target="136">
                    <mxGeometry relative="1" as="geometry"/>
                </mxCell>
                <mxCell id="134" value="raise()" style="shape=process;whiteSpace=wrap;html=1;backgroundOutline=1;strokeWidth=2;" vertex="1" parent="1">
                    <mxGeometry x="1020" y="605" width="120" height="60" as="geometry"/>
                </mxCell>
                <mxCell id="135" value="" style="edgeStyle=none;html=1;" edge="1" parent="1" source="136" target="137">
                    <mxGeometry relative="1" as="geometry"/>
                </mxCell>
                <mxCell id="136" value="lower()" style="shape=process;whiteSpace=wrap;html=1;backgroundOutline=1;strokeWidth=2;" vertex="1" parent="1">
                    <mxGeometry x="1020" y="705" width="120" height="60" as="geometry"/>
                </mxCell>
                <mxCell id="141" value="" style="edgeStyle=none;html=1;" edge="1" parent="1" source="137" target="140">
                    <mxGeometry relative="1" as="geometry"/>
                </mxCell>
                <mxCell id="137" value="drawCircle()" style="shape=process;whiteSpace=wrap;html=1;backgroundOutline=1;strokeWidth=2;" vertex="1" parent="1">
                    <mxGeometry x="1020" y="795" width="120" height="60" as="geometry"/>
                </mxCell>
                <mxCell id="139" value="'0'" style="text;html=1;align=center;verticalAlign=middle;resizable=0;points=[];autosize=1;strokeColor=none;fillColor=none;" vertex="1" parent="1">
                    <mxGeometry x="985" y="810" width="30" height="20" as="geometry"/>
                </mxCell>
                <mxCell id="147" style="edgeStyle=none;html=1;exitX=0.5;exitY=1;exitDx=0;exitDy=0;entryX=0.5;entryY=0;entryDx=0;entryDy=0;" edge="1" parent="1" source="140" target="143">
                    <mxGeometry relative="1" as="geometry"/>
                </mxCell>
                <mxCell id="140" value="raise()" style="shape=process;whiteSpace=wrap;html=1;backgroundOutline=1;strokeWidth=2;" vertex="1" parent="1">
                    <mxGeometry x="1020" y="880" width="120" height="60" as="geometry"/>
                </mxCell>
                <mxCell id="142" value="" style="edgeStyle=none;html=1;" edge="1" parent="1" source="143" target="145">
                    <mxGeometry relative="1" as="geometry"/>
                </mxCell>
                <mxCell id="143" value="lower()" style="shape=process;whiteSpace=wrap;html=1;backgroundOutline=1;strokeWidth=2;" vertex="1" parent="1">
                    <mxGeometry x="1020" y="960" width="120" height="60" as="geometry"/>
                </mxCell>
                <mxCell id="144" value="" style="edgeStyle=none;html=1;" edge="1" parent="1" source="145" target="146">
                    <mxGeometry relative="1" as="geometry"/>
                </mxCell>
                <mxCell id="145" value="turn()&lt;br&gt;move()" style="shape=process;whiteSpace=wrap;html=1;backgroundOutline=1;strokeWidth=2;" vertex="1" parent="1">
                    <mxGeometry x="1020" y="1060" width="120" height="60" as="geometry"/>
                </mxCell>
                <mxCell id="150" value="" style="edgeStyle=none;html=1;" edge="1" parent="1" source="146" target="149">
                    <mxGeometry relative="1" as="geometry"/>
                </mxCell>
                <mxCell id="146" value="raise()" style="shape=process;whiteSpace=wrap;html=1;backgroundOutline=1;strokeWidth=2;" vertex="1" parent="1">
                    <mxGeometry x="1020" y="1160" width="120" height="60" as="geometry"/>
                </mxCell>
                <mxCell id="148" value="'1'" style="text;html=1;align=center;verticalAlign=middle;resizable=0;points=[];autosize=1;strokeColor=none;fillColor=none;" vertex="1" parent="1">
                    <mxGeometry x="985" y="1080" width="30" height="20" as="geometry"/>
                </mxCell>
                <mxCell id="149" value="" style="ellipse;whiteSpace=wrap;html=1;strokeWidth=2;" vertex="1" parent="1">
                    <mxGeometry x="1020" y="1300" width="120" height="60" as="geometry"/>
                </mxCell>
            </root>
        </mxGraphModel>
    </diagram>
</mxfile>